<svg width="1458px" height="699px" viewBox="0 0 1458 699" version="1.1" xmlns="http://www.w3.org/2000/svg" xmlns:xlink="http://www.w3.org/1999/xlink">
    <title>sig</title>
    <defs></defs>
    <g id="signature" stroke="none" stroke-width="1" fill="none" fill-rule="evenodd">
        <g id="Artboard" transform="translate(-644.000000, -610.000000)" fill="#020202">
            <path d="M696,836 C701,834 703,842 701,853 C701,858 662,871 664,907 C665,982 779,980 813,979 C851,932 1004,636 1025,638 C1030,640 1033,644 1037,649 C1023,733 1021,879 1021,915 C1089,895 1106,873 1145,839 C1145,688 1187,610 1208,610 C1229,610 1234,625 1234,681 C1234,738.042836 1211.33333,792.37617 1166,844 C1142,974.666667 1143.66667,1041 1171,1043 C1212,1046 1239,885 1309,885 C1379,885 1386,983 1579,986 C1754,971 2043,933 2099,904 C2101.63524,902.635324 2102,913.614037 2102,915 C2102,924.148547 1961,958 1845,971 C1745.57483,987.844668 1641.94773,1004.85892 1579,1007 C1384,1008 1371.1807,911 1309,911 C1265,911 1218,1069.36753 1166,1066 C1104,1066 1139,908 1145,864 C1114,897 1069,927 1014,948 C993,1075 1014,1279 1021,1301 C1021,1308 1009,1310 1004,1308 C982,1258 987,1002 990,952.85435 C922,986.85435 838,1002 824,1002 C817,1002 784,1071 779,1075 C775,1077 765,1075 761,1066 C765,1060 789,1021 799,1002 C649,1002 644,929 644,900 C644,869 687,844 696,836 Z M845,975 C855,975 967,952.081851 993,929.163701 C997,890.302491 1007,702.97153 1010,695 C996,699.982206 848,963.042705 845,975 Z M1168,811 C1192.01877,800 1238,636 1209,637 C1180,638 1162,803 1168,811 Z M1389.44249,730.60226 C1385.26859,732.039448 1380.34372,728.72839 1378.44249,723.206805 C1376.54125,717.68522 1378.38361,712.044019 1382.55751,710.606831 C1386.73141,709.169642 1394.09877,715.08296 1396,720.604545 C1397.90123,726.12613 1393.61639,729.165071 1389.44249,730.60226 Z" id="sig"></path>
        </g>
    </g>
</svg>
