<?xml version="1.0" encoding="UTF-8"?>
<svg width="60px" height="60px" viewBox="0 0 90 90" version="1.1" xmlns="http://www.w3.org/2000/svg" xmlns:xlink="http://www.w3.org/1999/xlink">
    <title>aw-l-logo</title>
    <defs></defs>
    <g id="Page-1" stroke="none" stroke-width="1" fill="none" fill-rule="evenodd">
        <g id="Artboard-Copy-2" transform="translate(-5.000000, -5.000000)">
            <g id="aw-l-logo" transform="translate(5.000000, 5.000000)">
                <circle id="Oval-3" fill="#FFFFFF" cx="45" cy="45" r="45"></circle>
                <path d="M5.80800086,45.8 C6.23400376,67.0802657 23.6177378,84.2 45,84.2 C66.3822622,84.2 83.7659962,67.0802657 84.1919991,45.8 L66.6,45.8 L59.4,55.4 L52.2,46.6 L45,55.4 L29.8,36.2 L22.6,45.8 L5.80800086,45.8 Z M5.8,45 L21.8,45 L29.8,34.6 L45,53.8 L52.2,45 L59.4,53.8 L65.8,45 L84.2,45 C84.2,23.3504378 66.6495622,5.8 45,5.8 C23.3504378,5.8 5.8,23.3504378 5.8,45 Z M45,85 C22.90861,85 5,67.09139 5,45 C5,22.90861 22.90861,5 45,5 C67.09139,5 85,22.90861 85,45 C85,67.09139 67.09139,85 45,85 Z" id="Combined-Shape" fill="#000000"></path>
            </g>
        </g>
    </g>
</svg>
